<svg width="16" height="107" viewBox="0 0 16 107" fill="none" xmlns="http://www.w3.org/2000/svg">
<path id="Arrow 3" d="M8 3.33333C6.52724 3.33333 5.33333 4.52724 5.33333 6C5.33333 7.47276 6.52724 8.66667 8 8.66667C9.47276 8.66667 10.6667 7.47276 10.6667 6C10.6667 4.52724 9.47276 3.33333 8 3.33333ZM7.64645 106.354C7.84171 106.549 8.15829 106.549 8.35355 106.354L11.5355 103.172C11.7308 102.976 11.7308 102.66 11.5355 102.464C11.3403 102.269 11.0237 102.269 10.8284 102.464L8 105.293L5.17157 102.464C4.97631 102.269 4.65973 102.269 4.46447 102.464C4.2692 102.66 4.2692 102.976 4.46447 103.172L7.64645 106.354ZM7.5 11V11.5H8.5V11H7.5ZM8.5 21V20.5H7.5V21H8.5ZM7.5 31V31.5H8.5V31H7.5ZM8.5 41V40.5H7.5V41H8.5ZM7.5 51V51.5H8.5V51H7.5ZM8.5 61V60.5H7.5V61H8.5ZM7.5 71V71.5H8.5V71H7.5ZM8.5 81V80.5H7.5V81H8.5ZM7.5 91V91.5H8.5V91H7.5ZM8.5 101V100.5H7.5V101H8.5ZM7.5 6V11H8.5V6H7.5ZM7.5 21L7.5 31H8.5L8.5 21H7.5ZM7.5 41L7.5 51H8.5L8.5 41H7.5ZM7.5 61L7.5 71H8.5V61H7.5ZM7.5 81L7.5 91H8.5V81H7.5ZM7.5 101V106H8.5L8.5 101H7.5ZM8 0.666667C5.05448 0.666667 2.66667 3.05448 2.66667 6C2.66667 8.94552 5.05448 11.3333 8 11.3333C10.9455 11.3333 13.3333 8.94552 13.3333 6C13.3333 3.05448 10.9455 0.666667 8 0.666667ZM7.29289 106.707C7.68342 107.098 8.31658 107.098 8.70711 106.707L15.0711 100.343C15.4616 99.9526 15.4616 99.3195 15.0711 98.9289C14.6805 98.5384 14.0474 98.5384 13.6569 98.9289L8 104.586L2.34315 98.9289C1.95262 98.5384 1.31946 98.5384 0.928932 98.9289C0.538408 99.3195 0.538408 99.9526 0.928932 100.343L7.29289 106.707ZM7 11V12H9V11H7ZM9 21V20H7V21H9ZM7 31V32H9V31H7ZM9 41V40H7V41H9ZM7 51V52H9V51H7ZM9 61V60H7V61H9ZM7 71V72H9V71H7ZM9 81V80H7V81H9ZM7 91V92H9V91H7ZM9 101V100H7V101H9ZM7 6V11H9V6H7ZM7 21L7 31H9L9 21H7ZM7 41L7 51H9L9 41H7ZM7 61L7 71H9V61H7ZM7 81L7 91H9V81H7ZM7 101V106H9L9 101H7Z" fill="#177FE2"/>
</svg>
