<svg width="143" height="42" viewBox="0 0 143 42" fill="none" xmlns="http://www.w3.org/2000/svg">
<g id="Group">
<path id="Vector" d="M131.152 18.8934H139.107V32.6162C139.107 33.6829 139.306 34.388 139.704 34.7496C140.101 35.1112 140.879 35.292 142.054 35.292H142.47V41.9997H140.355C137.462 41.9997 135.202 41.2765 133.593 39.8121C131.965 38.3476 131.152 36.3226 131.152 33.7372V18.8934Z" fill="#177FE2"/>
<path id="Vector_2" d="M117.647 30.4104V36.5034H115.351V41.9997H107.396V27.3187C107.396 24.4802 108.3 22.2744 110.089 20.6834C111.879 19.1104 114.392 18.8934 117.647 18.8934C120.793 18.8934 123.107 19.0561 124.608 20.4664C126.108 21.8947 126.868 24.1005 126.868 27.0837V41.9997H118.913V27.5176C118.913 26.6136 118.786 25.9808 118.533 25.6373C118.28 25.2938 117.846 25.113 117.213 25.113C115.965 25.113 115.351 25.9085 115.351 27.5176V30.3923H117.647V30.4104Z" fill="#177FE2"/>
<path id="Vector_3" d="M42.2158 41.9999V25.3482C42.2158 23.2871 42.939 21.6056 44.3854 20.2858C45.8318 18.984 47.7122 18.3151 50.0264 18.3151C52.7746 18.3151 54.8899 19.3999 56.3544 21.5876C57.2584 20.4124 58.2167 19.5626 59.2472 19.0563C60.2778 18.5501 61.5615 18.3151 63.0621 18.3151C65.4668 18.3151 67.3109 18.9659 68.5946 20.2858C69.8783 21.5876 70.5111 23.486 70.5111 25.9268V41.9999H62.5559V26.9754C62.5559 26.2341 62.4836 25.746 62.357 25.4928C62.2124 25.2578 61.9412 25.1312 61.5253 25.1312C60.7298 25.1312 60.3501 25.7098 60.3501 26.8489V41.9999H52.3949V26.9754C52.3949 26.2341 52.3226 25.746 52.196 25.4928C52.0514 25.2578 51.7621 25.1312 51.3462 25.1312C50.5688 25.1312 50.171 25.746 50.171 26.9754V41.9999H42.2158Z" fill="#177FE2"/>
<path id="Vector_4" d="M102.875 18.3151V34.9668C102.875 37.0279 102.152 38.7094 100.705 40.0292C99.2589 41.331 97.3785 41.9999 95.0643 41.9999C92.3161 41.9999 90.2008 40.9151 88.7363 38.7274C87.8323 39.9027 86.874 40.7524 85.8435 41.2587C84.8129 41.7649 83.5292 41.9999 82.0286 41.9999C79.6239 41.9999 77.7798 41.3491 76.4961 40.0292C75.2124 38.7275 74.5796 36.829 74.5796 34.3882V18.3151H82.5348V33.3396C82.5348 34.0809 82.6071 34.569 82.7337 34.8222C82.8783 35.0753 83.1495 35.1838 83.5654 35.1838C84.3609 35.1838 84.7406 34.6052 84.7406 33.4662V18.3151H92.6958V33.3396C92.6958 34.0809 92.7681 34.569 92.8947 34.8222C93.0393 35.0753 93.3286 35.1838 93.7445 35.1838C94.5219 35.1838 94.9197 34.569 94.9197 33.3396V18.3151H102.875Z" fill="#177FE2"/>
<path id="Vector_5" d="M36.3228 30.0129C36.3228 33.9544 35.8528 37.7331 35.0211 41.1864C34.9307 41.5661 34.5872 41.8553 34.1894 41.8553H30.0491C29.5247 41.8553 29.127 41.3853 29.1993 40.879C29.6513 37.7873 29.9044 34.4606 29.9044 30.9892C29.9044 14.9522 24.6431 1.95265 18.1524 1.95265C11.6616 1.95265 6.40034 14.9522 6.40034 30.9892C6.40034 34.4606 6.63538 37.7873 7.10546 40.879C7.17778 41.4033 6.78002 41.8553 6.2557 41.8553H2.13345C1.73569 41.8553 1.39217 41.5841 1.30177 41.1864C0.452002 37.7331 0 33.9544 0 30.0129C0 13.4335 8.13603 0 18.1524 0C28.1687 0 36.3228 13.4335 36.3228 30.0129Z" fill="#177FE2"/>
<path id="Vector_6" d="M18.1521 18.5139L6.21924 30.1394H30.103L18.1521 18.5139Z" fill="#6FBF59"/>
</g>
</svg>
