<svg width="50" height="50" viewBox="0 0 50 50" fill="none" xmlns="http://www.w3.org/2000/svg">
<g id="Vector">
<path d="M0 25C0 11.1929 11.1929 0 25 0C38.8071 0 50 11.1929 50 25C50 38.8071 38.8071 50 25 50C11.1929 50 0 38.8071 0 25Z" fill="white"/>
<path d="M38.4635 20.5465L32.2899 14.4006C31.7805 13.8935 31.2638 13.6364 30.7543 13.6364C30.0546 13.6364 29.2377 14.1661 29.2377 15.6592V17.7515C24.7524 17.9461 20.5637 19.7773 17.369 22.9576C13.9852 26.3259 12.1215 30.8044 12.1212 35.5682C12.1212 35.9104 12.3411 36.2144 12.6672 36.3227C12.7505 36.3503 12.8357 36.3636 12.9201 36.3636C13.1666 36.3636 13.4052 36.2498 13.559 36.0459C17.3313 31.0472 23.0106 28.0931 29.2377 27.8598V29.92C29.2377 31.4129 30.0546 31.9428 30.7542 31.9428C31.2637 31.9428 31.7806 31.6857 32.2899 31.1786L38.4635 25.0326C39.0635 24.4354 39.3939 23.6388 39.3939 22.7895C39.3939 21.9404 39.0635 21.1438 38.4635 20.5465Z" fill="black"/>
</g>
</svg>
