<svg width="55" height="55" viewBox="0 0 55 55" fill="none" xmlns="http://www.w3.org/2000/svg">
<g id="Group 304">
<circle id="Ellipse 12" cx="27.7495" cy="27.7495" r="27.2505" fill="#C4C4C4" fill-opacity="0.5"/>
<path id="Vector" d="M43.4365 20.5143V41.6012H33.258L32.8758 41.3779L25.3007 36.9813V41.6012H15.7461L14.7237 41.0069L7.16162 36.6201V17.4179H38.099L43.4365 20.5143Z" fill="#999999"/>
<g id="Group 303">
<circle id="Ellipse 13" cx="43.9686" cy="38.6148" r="5.38628" fill="#A4A4A4"/>
<path id="Vector_2" d="M46.9278 37.9835H44.5994V35.655C44.5994 35.3064 44.3168 35.0238 43.9682 35.0238C43.6196 35.0238 43.337 35.3064 43.337 35.655V37.9835H41.0085C40.6599 37.9835 40.3773 38.266 40.3773 38.6147C40.3773 38.9633 40.6599 39.2459 41.0085 39.2459H43.337V41.5743C43.337 41.9229 43.6196 42.2055 43.9682 42.2055C44.3168 42.2055 44.5994 41.9229 44.5994 41.5743V39.2459H46.9278C47.2764 39.2459 47.559 38.9633 47.559 38.6147C47.559 38.266 47.2764 37.9835 46.9278 37.9835Z" fill="white"/>
</g>
</g>
</svg>
